<?xml version="1.0" standalone="no"?>
<!DOCTYPE svg PUBLIC "-//W3C//DTD SVG 20010904//EN"
 "http://www.w3.org/TR/2001/REC-SVG-20010904/DTD/svg10.dtd">
<svg version="1.0" xmlns="http://www.w3.org/2000/svg"
 width="238.000000pt" height="238.000000pt" viewBox="0 0 238.000000 238.000000"
 preserveAspectRatio="xMidYMid meet">
<metadata>
Created by potrace 1.11, written by Peter Selinger 2001-2013
</metadata>
<g transform="translate(0.000000,238.000000) scale(0.100000,-0.100000)"
fill="#000000" stroke="none">
<path d="M1090 1834 c-138 -27 -267 -92 -355 -180 -103 -103 -176 -252 -189
-383 -2 -23 -8 -47 -13 -51 -4 -4 -48 -24 -96 -44 -261 -107 -427 -221 -427
-293 0 -47 82 -76 220 -77 75 0 289 12 299 18 3 2 32 7 63 10 49 6 57 4 62
-11 15 -47 151 -166 241 -211 104 -52 168 -67 295 -66 194 0 332 58 471 197
60 59 141 202 155 270 2 10 5 26 8 35 3 9 8 37 11 62 4 25 10 48 13 51 4 4 52
26 107 49 177 75 312 152 377 214 29 28 44 66 35 90 -15 38 -131 64 -265 60
-77 -2 -229 -14 -245 -19 -6 -2 -35 -6 -63 -9 l-52 -6 -38 47 c-132 162 -291
242 -489 248 -55 2 -111 1 -125 -1z m-335 -300 c-61 -152 -55 -367 15 -504
l20 -40 -24 -6 c-13 -3 -45 -6 -72 -7 l-48 -2 -17 60 c-22 76 -24 219 -4 296
19 70 73 180 116 232 17 21 33 36 35 35 2 -2 -8 -31 -21 -64z m1367 -41 l22
-22 -38 -36 c-34 -32 -262 -154 -269 -144 -2 2 -11 33 -21 68 -9 35 -25 81
-36 102 -10 22 -15 39 -12 40 4 0 32 3 62 5 30 3 56 7 58 9 2 2 50 2 108 1 92
-1 106 -4 126 -23z m-291 -230 c1 -10 3 -36 5 -59 l3 -40 -117 -42 c-177 -63
-462 -148 -591 -177 -134 -31 -247 -57 -252 -61 -12 -7 -87 91 -78 101 3 2 18
6 34 9 74 14 250 54 355 82 212 56 564 168 610 195 23 13 30 11 31 -8z m-1286
-152 c4 -29 13 -74 21 -99 7 -26 10 -50 5 -55 -12 -12 -241 -18 -283 -7 -52
15 -55 36 -12 76 30 28 252 149 260 141 1 -1 5 -26 9 -56z m358 -272 c120
-118 275 -184 447 -189 l55 -2 -45 -14 c-67 -21 -88 -24 -171 -25 -150 -1
-293 58 -406 168 -36 35 -63 67 -59 71 7 6 94 28 124 31 8 0 32 -17 55 -40z"/>
</g>
</svg>
